<svg width="24" height="24" viewBox="0 0 24 24" fill="none" xmlns="http://www.w3.org/2000/svg">
<path fill-rule="evenodd" clip-rule="evenodd" d="M3 2C2.44772 2 2 2.44772 2 3C2 3.55228 2.44772 4 3 4H4V15C4 16.1046 4.89543 17 6 17H17.6459C18.4637 17 19.1992 16.5021 19.5029 15.7428L21.85 9.74278C22.3755 8.42905 21.4149 7 20 7H6V3C6 2.44772 5.55228 2 5 2H3ZM20 9H6V15H17.6459L20 9Z" fill="#363636"/>
<path d="M6.5 20.5C6.5 19.6716 7.17157 19 8 19C8.82843 19 9.5 19.6716 9.5 20.5C9.5 21.3284 8.82843 22 8 22C7.17157 22 6.5 21.3284 6.5 20.5Z" fill="#363636"/>
<path d="M16 19C15.1716 19 14.5 19.6716 14.5 20.5C14.5 21.3284 15.1716 22 16 22C16.8284 22 17.5 21.3284 17.5 20.5C17.5 19.6716 16.8284 19 16 19Z" fill="#363636"/>
</svg>
